<?xml version="1.0" encoding="iso-8859-1"?>
<!-- Generator: Adobe Illustrator 18.1.1, SVG Export Plug-In . SVG Version: 6.00 Build 0)  -->
<svg version="1.1" id="Capa_1" xmlns="http://www.w3.org/2000/svg" xmlns:xlink="http://www.w3.org/1999/xlink" x="0px" y="0px"
	 viewBox="0 0 340.731 340.731" style="enable-background:new 0 0 340.731 340.731;" xml:space="preserve">
<g>
	<g>
		<path fill="current" stroke="current" d="M332.41,9.683c-10.738-10.754-29.482-10.746-40.236,0L129.326,172.531
			c-1.674,1.666-6.113,6.105-9.063,40.488l-0.829,9.649l9.64-0.845c34.457-3.032,38.822-7.397,40.472-9.039L332.402,49.92
			C343.505,38.816,343.505,20.771,332.41,9.683z M320.916,38.418L158.621,200.721c-2.845,1.211-11.762,2.723-21.134,3.877
			c1.122-9.356,2.634-18.273,3.869-21.102L303.692,21.169c4.601-4.601,12.624-4.601,17.241,0
			C325.663,25.924,325.663,33.662,320.916,38.418z"/>
		<path fill="current" stroke="current" d="M315.795,322.853H16.257V23.307h239.297l16.257-16.257H8.129C3.642,7.049,0,10.691,0,15.178
			v315.803c0,4.495,3.642,8.129,8.129,8.129h315.795c4.495,0,8.129-3.633,8.129-8.129V73.257l-16.257,16.257
			C315.795,89.514,315.795,322.853,315.795,322.853z"/>
	</g>
</g>
<g>
</g>
<g>
</g>
<g>
</g>
<g>
</g>
<g>
</g>
<g>
</g>
<g>
</g>
<g>
</g>
<g>
</g>
<g>
</g>
<g>
</g>
<g>
</g>
<g>
</g>
<g>
</g>
<g>
</g>
</svg>
